<svg width="40" height="40" viewBox="0 0 40 40" fill="none" xmlns="http://www.w3.org/2000/svg">
<circle opacity="0.3" cx="20" cy="20" r="20" fill="#1A1B1D"/>
<path d="M20 17.6359C19.3635 17.6359 18.753 17.8904 18.3029 18.3433C17.8529 18.7963 17.6 19.4107 17.6 20.0513C17.6 20.6919 17.8529 21.3062 18.3029 21.7592C18.753 22.2122 19.3635 22.4667 20 22.4667C20.6365 22.4667 21.247 22.2122 21.6971 21.7592C22.1471 21.3062 22.4 20.6919 22.4 20.0513C22.4 19.4107 22.1471 18.7963 21.6971 18.3433C21.247 17.8904 20.6365 17.6359 20 17.6359ZM20 16.0256C21.0609 16.0256 22.0783 16.4498 22.8284 17.2047C23.5786 17.9597 24 18.9836 24 20.0513C24 21.1189 23.5786 22.1429 22.8284 22.8978C22.0783 23.6528 21.0609 24.0769 20 24.0769C18.9391 24.0769 17.9217 23.6528 17.1716 22.8978C16.4214 22.1429 16 21.1189 16 20.0513C16 18.9836 16.4214 17.9597 17.1716 17.2047C17.9217 16.4498 18.9391 16.0256 20 16.0256ZM25.2 15.8244C25.2 16.0913 25.0946 16.3473 24.9071 16.536C24.7196 16.7247 24.4652 16.8308 24.2 16.8308C23.9348 16.8308 23.6804 16.7247 23.4929 16.536C23.3054 16.3473 23.2 16.0913 23.2 15.8244C23.2 15.5574 23.3054 15.3015 23.4929 15.1127C23.6804 14.924 23.9348 14.8179 24.2 14.8179C24.4652 14.8179 24.7196 14.924 24.9071 15.1127C25.0946 15.3015 25.2 15.5574 25.2 15.8244ZM20 13.6103C18.0208 13.6103 17.6976 13.6159 16.7768 13.657C16.1496 13.6867 15.7288 13.7713 15.3384 13.9243C14.9912 14.0595 14.7408 14.2213 14.4744 14.4903C14.224 14.7337 14.0315 15.031 13.9112 15.3598C13.7592 15.7543 13.6752 16.177 13.6464 16.8074C13.6048 17.6963 13.6 18.0071 13.6 20.0513C13.6 22.0432 13.6056 22.3684 13.6464 23.2951C13.676 23.9255 13.76 24.3498 13.9112 24.7419C14.0472 25.0922 14.2072 25.3442 14.4728 25.6115C14.7424 25.882 14.9928 26.0438 15.3368 26.1775C15.732 26.3313 16.1528 26.4166 16.7768 26.4456C17.66 26.4875 17.9688 26.4923 20 26.4923C21.9792 26.4923 22.3024 26.4866 23.2232 26.4456C23.8488 26.4158 24.2704 26.3313 24.6608 26.1791C25.0072 26.043 25.2592 25.8812 25.5248 25.6139C25.7944 25.3426 25.9552 25.0906 26.088 24.7444C26.24 24.3474 26.3248 23.9231 26.3536 23.2951C26.3952 22.4063 26.4 22.0955 26.4 20.0513C26.4 18.0594 26.3944 17.7341 26.3536 16.8074C26.324 16.1778 26.24 15.7527 26.088 15.3598C25.9674 15.0313 25.7753 14.7342 25.5256 14.4903C25.2838 14.2381 24.9884 14.0444 24.6616 13.9234C24.2696 13.7705 23.8488 13.6859 23.2232 13.657C22.34 13.6151 22.0312 13.6103 20 13.6103ZM20 12C22.1736 12 22.4448 12.0081 23.2976 12.0483C24.1496 12.0886 24.7296 12.223 25.24 12.4227C25.768 12.6272 26.2128 12.9042 26.6576 13.351C27.0644 13.7535 27.3792 14.2403 27.58 14.7777C27.7776 15.2906 27.912 15.8751 27.952 16.7325C27.9896 17.5908 28 17.8637 28 20.0513C28 22.2388 27.992 22.5117 27.952 23.37C27.912 24.2275 27.7776 24.8112 27.58 25.3249C27.3797 25.8625 27.0649 26.3495 26.6576 26.7515C26.2576 27.1608 25.7738 27.4776 25.24 27.6798C24.7304 27.8787 24.1496 28.014 23.2976 28.0542C22.4448 28.0921 22.1736 28.1025 20 28.1025C17.8264 28.1025 17.5552 28.0945 16.7024 28.0542C15.8504 28.014 15.2704 27.8787 14.76 27.6798C14.2259 27.4781 13.742 27.1613 13.3424 26.7515C12.9355 26.3491 12.6207 25.8622 12.42 25.3249C12.2216 24.812 12.088 24.2275 12.048 23.37C12.0104 22.5117 12 22.2388 12 20.0513C12 17.8637 12.008 17.5908 12.048 16.7325C12.088 15.8743 12.2216 15.2914 12.42 14.7777C12.6202 14.24 12.935 13.753 13.3424 13.351C13.7421 12.9414 14.2259 12.6246 14.76 12.4227C15.2704 12.223 15.8496 12.0886 16.7024 12.0483C17.5552 12.0105 17.8264 12 20 12Z" fill="white"/>
</svg>
