<svg width="150" height="28" viewBox="0 0 150 28" fill="none" xmlns="http://www.w3.org/2000/svg">
<path d="M35.5863 8.4248C36.7785 8.4248 37.7492 8.74663 38.4986 9.40722C39.248 10.0678 39.6226 10.9147 39.6226 11.9649C39.6226 12.6763 39.4353 13.303 39.0606 13.8281C38.6859 14.3532 38.1409 14.7766 37.4086 15.0815C37.8174 15.3017 38.175 15.5897 38.4816 15.9623C38.7881 16.3349 39.1798 16.9617 39.6567 17.8424C40.4231 19.3669 41.0021 20.4171 41.3768 20.9929H38.6519C38.4645 20.7219 38.2091 20.2815 37.8855 19.6718C37.1872 18.3337 36.6763 17.4359 36.3527 16.9617C36.0291 16.5043 35.7055 16.1656 35.416 15.9792C35.1094 15.776 34.7688 15.6913 34.3771 15.6913H33.4915V20.9929H31.0561V8.4248H35.5863ZM35.0413 13.7942C35.6885 13.7942 36.1824 13.6418 36.54 13.3199C36.8977 12.9981 37.085 12.5747 37.085 12.0157C37.085 11.4398 36.8977 11.0163 36.54 10.7284C36.1824 10.4405 35.6544 10.3049 34.9902 10.3049H33.4745V13.8112H35.0413V13.7942Z" fill="#69BACC"/>
<path d="M45.4813 8.4248V20.993H43.0458V8.4248H45.4813Z" fill="#69BACC"/>
<path d="M54.9505 8.27234C55.6658 8.27234 56.364 8.35703 57.0623 8.50947C57.7435 8.67886 58.4929 8.94987 59.2933 9.33945V11.6261C58.5099 11.1857 57.7946 10.8639 57.1304 10.6606C56.4662 10.4574 55.785 10.3557 55.0697 10.3557C54.167 10.3557 53.3666 10.5421 52.6343 10.9147C51.9019 11.2873 51.3399 11.8124 50.9482 12.473C50.5395 13.1505 50.3521 13.8958 50.3521 14.7089C50.3521 15.5558 50.5565 16.301 50.9482 16.9616C51.3399 17.6222 51.9019 18.1473 52.6343 18.503C53.3666 18.8587 54.167 19.045 55.0697 19.045C55.7679 19.045 56.4321 18.9434 57.0623 18.7402C57.6924 18.5369 58.4929 18.1812 59.4466 17.673V19.9597C58.6291 20.3832 57.8798 20.688 57.1815 20.8744C56.5003 21.0607 55.6998 21.1454 54.7802 21.1454C53.4517 21.1454 52.2596 20.8744 51.2037 20.3493C50.1477 19.8242 49.3303 19.062 48.7342 18.0626C48.1381 17.0633 47.8315 15.9792 47.8315 14.7935C47.8315 13.5232 48.1381 12.3883 48.7512 11.389C49.3643 10.3727 50.2159 9.61046 51.3058 9.0515C52.3618 8.54335 53.588 8.27234 54.9505 8.27234Z" fill="#69BACC"/>
<path d="M68.2005 8.27234C68.9158 8.27234 69.614 8.35703 70.3123 8.50947C70.9935 8.67886 71.7429 8.94987 72.5433 9.33945V11.6261C71.7599 11.1857 71.0446 10.8639 70.3804 10.6606C69.7162 10.4574 69.035 10.3557 68.3197 10.3557C67.417 10.3557 66.6166 10.5421 65.8843 10.9147C65.1519 11.2873 64.5899 11.8124 64.1982 12.473C63.7895 13.1505 63.6021 13.8958 63.6021 14.7089C63.6021 15.5558 63.8065 16.301 64.1982 16.9616C64.5899 17.6222 65.1519 18.1473 65.8843 18.503C66.6166 18.8587 67.417 19.045 68.3197 19.045C69.0179 19.045 69.6822 18.9434 70.3123 18.7402C70.9424 18.5369 71.7429 18.1812 72.6966 17.673V19.9597C71.8791 20.3832 71.1298 20.688 70.4315 20.8744C69.7332 21.0607 68.9498 21.1454 68.0302 21.1454C66.7017 21.1454 65.5096 20.8744 64.4537 20.3493C63.3977 19.8242 62.5803 19.062 61.9842 18.0626C61.3881 17.0633 61.0815 15.9792 61.0815 14.7935C61.0815 13.5232 61.3881 12.3883 62.0012 11.389C62.6143 10.3727 63.4659 9.61046 64.5558 9.0515C65.6288 8.54335 66.838 8.27234 68.2005 8.27234Z" fill="#69BACC"/>
<path d="M77.4993 8.4248V20.993H75.0639V8.4248H77.4993Z" fill="#69BACC"/>
<path d="M84.8908 8.4248C86.083 8.4248 87.0537 8.74663 87.8031 9.40722C88.5525 10.0678 88.9271 10.9147 88.9271 11.9649C88.9271 12.6763 88.7398 13.303 88.3651 13.8281C87.9904 14.3532 87.4455 14.7766 86.7131 15.0815C87.1219 15.3017 87.4795 15.5897 87.7861 15.9623C88.0926 16.3349 88.4843 16.9617 88.9612 17.8424C89.7276 19.3669 90.3066 20.4171 90.6813 20.993H87.9564C87.769 20.7219 87.5136 20.2815 87.19 19.6718C86.4917 18.3337 85.9808 17.4359 85.6572 16.9617C85.3336 16.5043 85.01 16.1656 84.7205 15.9792C84.431 15.7929 84.0733 15.6913 83.6816 15.6913H82.796V20.993H80.3436V8.4248H84.8908ZM84.3458 13.7942C84.993 13.7942 85.4869 13.6418 85.8445 13.3199C86.2022 12.9981 86.3895 12.5747 86.3895 12.0157C86.3895 11.4398 86.2022 11.0163 85.8445 10.7284C85.4869 10.4405 84.9589 10.3049 84.2947 10.3049H82.779V13.8112H84.3458V13.7942Z" fill="black"/>
<path d="M100.457 8.4248V10.3219H94.7346V13.6248H100.219V15.5219H94.7346V19.0959H100.593V20.993H92.2992V8.4248H100.457Z" fill="black"/>
<path d="M106.52 8.27234C107.746 8.27234 108.938 8.57723 110.079 9.187V11.3551C108.768 10.5759 107.61 10.1694 106.588 10.1694C105.975 10.1694 105.498 10.288 105.141 10.5251C104.8 10.7623 104.613 11.0841 104.613 11.4737C104.613 11.9479 104.936 12.3883 105.583 12.7948C105.771 12.9134 106.469 13.2522 107.678 13.8111C108.717 14.3023 109.466 14.8444 109.926 15.4372C110.386 16.03 110.607 16.7414 110.607 17.5714C110.607 18.6555 110.216 19.5193 109.432 20.1799C108.649 20.8405 107.644 21.1792 106.401 21.1792C105.6 21.1792 104.902 21.0946 104.323 20.9082C103.744 20.7389 103.08 20.434 102.364 19.9936V17.6053C103.71 18.7232 104.987 19.2822 106.179 19.2822C106.775 19.2822 107.252 19.1467 107.627 18.8926C108.002 18.6385 108.172 18.2998 108.172 17.8594C108.172 17.2835 107.848 16.8092 107.218 16.4366C106.69 16.1486 106.009 15.8098 105.158 15.4033C104.17 14.946 103.42 14.4209 102.927 13.8281C102.433 13.2352 102.194 12.5238 102.194 11.7447C102.194 10.6945 102.586 9.84759 103.386 9.22088C104.187 8.57723 105.226 8.27234 106.52 8.27234Z" fill="black"/>
<path d="M119.242 8.27234C120.553 8.27234 121.729 8.54335 122.767 9.08537C123.806 9.6274 124.641 10.3896 125.271 11.4059C125.884 12.4222 126.208 13.5232 126.208 14.7258C126.208 15.8945 125.901 16.9955 125.305 17.9949C124.709 18.9942 123.874 19.7734 122.802 20.3323C121.746 20.8913 120.553 21.1623 119.225 21.1623C117.914 21.1623 116.722 20.8744 115.649 20.3154C114.576 19.7564 113.741 18.9773 113.145 17.9949C112.549 17.0125 112.242 15.9115 112.242 14.7258C112.242 13.574 112.549 12.49 113.145 11.4737C113.741 10.4574 114.559 9.67821 115.614 9.11925C116.67 8.54335 117.88 8.27234 119.242 8.27234ZM114.78 14.7258C114.78 15.5558 114.967 16.318 115.342 16.9786C115.717 17.6392 116.245 18.1643 116.926 18.52C117.607 18.8926 118.374 19.062 119.225 19.062C120.519 19.062 121.592 18.6555 122.427 17.8424C123.261 17.0294 123.687 15.9962 123.687 14.7089C123.687 13.8789 123.5 13.1167 123.125 12.4561C122.75 11.7955 122.222 11.2704 121.524 10.8978C120.843 10.5251 120.077 10.3557 119.208 10.3557C118.356 10.3557 117.573 10.5421 116.892 10.9147C116.211 11.2873 115.683 11.7955 115.308 12.4561C114.967 13.1336 114.78 13.8789 114.78 14.7258Z" fill="black"/>
<path d="M133.037 8.4248C134.229 8.4248 135.2 8.74663 135.949 9.40722C136.699 10.0678 137.073 10.9147 137.073 11.9649C137.073 12.6763 136.886 13.303 136.511 13.8281C136.137 14.3532 135.592 14.7766 134.859 15.0815C135.268 15.3017 135.626 15.5897 135.932 15.9623C136.239 16.3349 136.631 16.9617 137.108 17.8424C137.874 19.3669 138.453 20.4171 138.828 20.993H136.103C135.915 20.7219 135.66 20.2815 135.336 19.6718C134.638 18.3337 134.127 17.4359 133.804 16.9617C133.48 16.5043 133.156 16.1656 132.867 15.9792C132.577 15.7929 132.22 15.6913 131.828 15.6913H130.942V20.993H128.507V8.4248H133.037ZM132.492 13.7942C133.139 13.7942 133.633 13.6418 133.991 13.3199C134.348 12.9981 134.536 12.5747 134.536 12.0157C134.536 11.4398 134.348 11.0163 133.991 10.7284C133.633 10.4405 133.105 10.3049 132.441 10.3049H130.925V13.8112H132.492V13.7942Z" fill="black"/>
<path d="M150 8.4248V10.3219H145.504V20.993H143.068V10.3219H138.572V8.4248H150Z" fill="black"/>
<path d="M27.6859 14.1207C27.6177 21.7931 21.4464 28 13.843 28H27.6859V14.1207ZM27.6859 0H13.843C21.4634 0 27.6177 6.2069 27.6859 13.8793V0ZM13.843 0.637931C6.54643 0.637931 0.630775 6.62069 0.630775 14C0.630775 21.3793 6.54643 27.3621 13.843 27.3621C21.1395 27.3621 27.0552 21.3793 27.0552 14C27.0552 6.62069 21.1395 0.637931 13.843 0.637931ZM17.9515 2.05172C17.9686 2.13793 18.5653 14.6897 18.0197 16.5172C17.4401 15.3621 15.3091 1.51724 15.2921 1.43104C16.2297 1.55172 17.1162 1.74138 17.9515 2.05172ZM12.1382 1.48276C12.1723 1.56897 12.2064 1.65517 12.2405 1.74138C12.2746 1.82759 12.3087 1.93104 12.3427 2.03448C13.3997 4.93104 15.8035 11.3966 15.7012 13.8448C15.5989 13.9138 11.3199 6.86207 9.52983 2.75862C9.49573 2.67241 9.44459 2.56897 9.39344 2.48276C9.35935 2.39655 9.3082 2.32759 9.27411 2.24138C10.1777 1.87931 11.1323 1.62069 12.1382 1.48276ZM5.91565 4.22414C5.98385 4.27586 6.05204 4.34483 6.12023 4.41379C6.18842 4.48276 6.25661 4.55172 6.34185 4.62069C8.50695 6.53448 11.9847 10.8103 12.2746 12.0172C12.1211 12.1207 7.55226 9.17241 4.17676 6.93104C4.09152 6.87931 4.00628 6.82759 3.92104 6.77586C3.8358 6.72414 3.76761 6.68966 3.68237 6.63793C4.31314 5.74138 5.0803 4.93103 5.91565 4.22414ZM1.97757 10.0172C2.06281 10.0345 12.9735 13.5862 14.559 15.5517C14.4908 15.6724 1.50022 12.6897 1.41498 12.6724C1.51727 11.7759 1.72185 10.8966 1.97757 10.0172ZM1.48317 15.8448C1.56841 15.8448 13.4168 16.5862 16.3149 17.8621C15.1216 18.0517 2.35262 18.7241 2.25033 18.7241C1.84118 17.7931 1.60251 16.8276 1.48317 15.8448ZM3.73351 21.4138C3.81875 21.3966 14.8999 19.1897 17.406 19.7069C16.5536 20.1897 6.06909 23.7586 5.98385 23.7931C5.14849 23.1379 4.41543 22.3276 3.73351 21.4138ZM13.843 26.6379C12.087 26.6379 10.3993 26.2759 8.882 25.6034C8.96724 25.5517 9.06953 25.5 9.17182 25.431C9.27411 25.3621 9.3764 25.3103 9.49573 25.2414C11.8484 23.8448 17.6276 20.3966 18.6164 22.931C18.7869 23.2414 19.0426 24.069 19.2301 24.7586C19.2642 24.8621 19.2813 24.9655 19.3154 25.0517C19.3324 25.1379 19.3665 25.2414 19.3836 25.3103C17.7129 26.1724 15.8376 26.6379 13.843 26.6379ZM20.7133 3.43103C21.668 4.05172 22.367 4.65517 23.0489 5.43103C23.0489 5.55172 20.5258 17.7931 19.8609 18.6034C19.5711 14.9655 20.5769 3.27586 20.7133 3.43103ZM24.9924 8.89655C25.0435 8.77586 25.0776 8.65517 25.1287 8.53448C25.913 10.1897 26.3562 12.0517 26.3562 14C26.3562 18.1897 24.3275 21.9138 21.2248 24.2069C21.2077 24.1034 21.1907 24.0172 21.1736 23.9138C21.1566 23.7931 21.1395 23.6897 21.1225 23.569C20.6281 19.069 23.4921 12.8103 24.8389 9.2931C24.8901 9.15517 24.9412 9.01724 24.9924 8.89655ZM0 14C0 6.25862 6.20547 0 13.843 0H0V14ZM13.843 28C6.20547 28 0 21.7414 0 14V28H13.843Z" fill="#69BACC"/>
</svg>
