<svg width="64" height="64" viewBox="0 0 64 64" fill="none" xmlns="http://www.w3.org/2000/svg">
<path d="M27.05 34.2115L24.93 36.3471L27.758 39.1932L39.071 27.8067L36.243 24.9615L34.12 27.0951L35.535 28.5182L34.12 29.9433L32.706 28.5192L31.292 29.9433L32.706 31.3663L31.292 32.7894L29.878 31.3663L28.463 32.7894L29.878 34.2125L28.463 35.6366L27.05 34.2105V34.2115ZM36.95 22.8259L41.192 27.0951C41.3795 27.2839 41.4848 27.5398 41.4848 27.8067C41.4848 28.0735 41.3795 28.3295 41.192 28.5182L28.464 41.3278C28.2765 41.5165 28.0222 41.6225 27.757 41.6225C27.4918 41.6225 27.2375 41.5165 27.05 41.3278L22.808 37.0586C22.6205 36.8699 22.5152 36.6139 22.5152 36.3471C22.5152 36.0802 22.6205 35.8243 22.808 35.6355L35.536 22.8259C35.7235 22.6373 35.9778 22.5313 36.243 22.5313C36.5082 22.5313 36.7625 22.6373 36.95 22.8259ZM34.12 38.4807L35.535 37.0576L37.777 39.315H39.191V37.8919L36.949 35.6345L38.363 34.2115L41 36.8644V41.1346H36.758L34.121 38.4807H34.12ZM25.636 29.9413L22.807 27.0951C22.714 27.0017 22.6403 26.8907 22.5899 26.7685C22.5396 26.6463 22.5137 26.5154 22.5137 26.3831C22.5137 26.2508 22.5396 26.1199 22.5899 25.9977C22.6403 25.8755 22.714 25.7645 22.807 25.6711L25.636 22.8249C25.8235 22.6363 26.0778 22.5303 26.343 22.5303C26.6082 22.5303 26.8625 22.6363 27.05 22.8249L29.88 25.6711L28.464 27.0951L26.343 24.9595L24.929 26.3836L27.05 28.5172L25.636 29.9413Z" fill="#13ACC7"/>
<circle opacity="0.2" cx="32" cy="32" r="31.5" stroke="#13ACC7"/>
</svg>
