<svg width="64" height="64" viewBox="0 0 64 64" fill="none" xmlns="http://www.w3.org/2000/svg">
<path d="M41 33.242V40H42V42H22V40H23V33.242C22.3844 32.8311 21.8797 32.2745 21.5308 31.6218C21.1819 30.969 20.9996 30.2402 21 29.5C21 28.673 21.224 27.876 21.633 27.197L24.345 22.5C24.4328 22.348 24.559 22.2217 24.711 22.134C24.863 22.0462 25.0355 22 25.211 22H38.79C38.9655 22 39.138 22.0462 39.29 22.134C39.442 22.2217 39.5682 22.348 39.656 22.5L42.358 27.182C42.9546 28.1729 43.1463 29.3555 42.8934 30.4841C42.6405 31.6127 41.9624 32.6005 41 33.242ZM39 33.972C38.3124 34.0491 37.6163 33.9665 36.9659 33.7307C36.3155 33.4948 35.7283 33.1119 35.25 32.612C34.8302 33.0511 34.3258 33.4005 33.7672 33.6393C33.2086 33.878 32.6075 34.001 32 34.001C31.3927 34.0013 30.7916 33.8786 30.233 33.6402C29.6745 33.4018 29.17 33.0527 28.75 32.614C28.2716 33.1138 27.6844 33.4964 27.034 33.7321C26.3835 33.9678 25.6875 34.0503 25 33.973V40H39V33.973V33.972ZM25.789 24L23.356 28.213C23.1196 28.7971 23.1125 29.449 23.3361 30.0382C23.5598 30.6273 23.9977 31.1103 24.5622 31.3904C25.1267 31.6705 25.7761 31.7271 26.3806 31.5488C26.985 31.3706 27.4998 30.9706 27.822 30.429C28.157 29.592 29.342 29.592 29.678 30.429C29.8633 30.8934 30.1836 31.2916 30.5975 31.5721C31.0115 31.8526 31.5 32.0025 32 32.0025C32.5 32.0025 32.9885 31.8526 33.4025 31.5721C33.8164 31.2916 34.1367 30.8934 34.322 30.429C34.657 29.592 35.842 29.592 36.178 30.429C36.3078 30.7484 36.5022 31.0376 36.7491 31.2783C36.996 31.519 37.2901 31.706 37.6127 31.8275C37.9354 31.9491 38.2797 32.0026 38.6241 31.9847C38.9684 31.9668 39.3053 31.8778 39.6136 31.7234C39.9219 31.569 40.1949 31.3525 40.4155 31.0875C40.6361 30.8225 40.7995 30.5148 40.8955 30.1836C40.9914 29.8524 41.0178 29.5049 40.973 29.1631C40.9281 28.8212 40.8131 28.4923 40.635 28.197L38.21 24H25.79H25.789Z" fill="#13ACC7"/>
<circle opacity="0.2" cx="32" cy="32" r="31.5" stroke="#13ACC7"/>
</svg>
