<svg width="64" height="64" viewBox="0 0 64 64" fill="none" xmlns="http://www.w3.org/2000/svg">
<circle opacity="0.2" cx="32" cy="32" r="31.5" stroke="#13ACC7"/>
<path d="M33.0687 38.2225H28.467V42H25.8434V38.2225H23V36.0522H25.8434V34.1703H23V32.0137H25.8434V22H33.2198C35.3626 22 37.0614 22.5449 38.3159 23.6346C39.5705 24.7244 40.1978 26.1987 40.1978 28.0577C40.1978 30.0082 39.5934 31.5147 38.3846 32.5769C37.185 33.63 35.4771 34.1612 33.261 34.1703H28.467V36.0522H33.0687V38.2225ZM28.467 32.0137H33.2198C34.6392 32.0137 35.7198 31.6795 36.4615 31.011C37.2033 30.3425 37.5742 29.3672 37.5742 28.0852C37.5742 26.9222 37.1896 25.9835 36.4203 25.2692C35.6511 24.5458 34.6117 24.1795 33.3022 24.1703H28.467V32.0137Z" fill="#13ACC7"/>
</svg>
